<?xml version="1.0" encoding="utf-8"?>
<!-- Generator: Adobe Illustrator 24.1.1, SVG Export Plug-In . SVG Version: 6.00 Build 0)  -->
<svg version="1.1" id="Layer_1" xmlns="http://www.w3.org/2000/svg" xmlns:xlink="http://www.w3.org/1999/xlink" x="0px" y="0px"
	 viewBox="0 0 512 512" style="enable-background:new 0 0 512 512;" xml:space="preserve">
<g>
	<path d="M390.7,458.1H121.3c-7.4,0-13.5-6-13.5-13.5c0-7.4,6-13.5,13.5-13.5h269.5c7.4,0,13.5,6,13.5,13.5
		C404.2,452.1,398.2,458.1,390.7,458.1z"/>
	<path d="M444.6,53.9c-7.4,0-13.5,6-13.5,13.5v404.2c0,7.4-6,13.5-13.5,13.5H121.3c-22.3,0-40.4-18.1-40.4-40.4
		c0-22.3,18.1-40.4,40.4-40.4h242.5c22.3,0,40.4-18.1,40.4-40.4V40.4c0-22.3-18.1-40.4-40.4-40.4H94.3C72,0,53.9,18.1,53.9,40.4
		v404.2c0,37.1,30.2,67.4,67.4,67.4h296.4c22.3,0,40.4-18.1,40.4-40.4V67.4C458.1,59.9,452.1,53.9,444.6,53.9z M94.3,26.9h269.5
		c7.4,0,13.5,6,13.5,13.5v323.4c0,7.4-6,13.5-13.5,13.5H121.3c-15.1,0-29.2,5-40.4,13.5V40.4C80.8,33,86.9,26.9,94.3,26.9z"/>
</g>
</svg>
