<?xml version="1.0" encoding="utf-8"?>
<!-- Generator: Adobe Illustrator 24.1.1, SVG Export Plug-In . SVG Version: 6.00 Build 0)  -->
<svg version="1.1" id="Layer_1" xmlns="http://www.w3.org/2000/svg" xmlns:xlink="http://www.w3.org/1999/xlink" x="0px" y="0px"
	 viewBox="0 0 512 512" style="enable-background:new 0 0 512 512;" xml:space="preserve">
<style type="text/css">
	.st0{fill-rule:evenodd;clip-rule:evenodd;}
</style>
<g>
	<path class="st0" d="M448,64H64c-17.7,0-32,14.3-32,32v320c0,17.7,14.3,32,32,32h384c17.7,0,32-14.3,32-32V96
		C480,78.3,465.7,64,448,64z M64,32C28.6,32,0,60.6,0,96v320c0,35.4,28.6,64,64,64h384c35.4,0,64-28.6,64-64V96
		c0-35.4-28.6-64-64-64H64z"/>
	<path class="st0" d="M192,288c0-8.8,7.2-16,16-16h96c8.8,0,16,7.2,16,16s-7.2,16-16,16h-96C199.2,304,192,296.8,192,288z
		 M100.7,132.7c6.3-6.3,16.4-6.3,22.6,0l0,0l64,64c6.3,6.3,6.3,16.4,0,22.6l0,0l-64,64c-6.3,6.3-16.4,6.3-22.7,0
		c-6.3-6.3-6.3-16.4,0-22.7l52.7-52.7l-52.7-52.7C94.4,149.1,94.4,139,100.7,132.7L100.7,132.7z"/>
</g>
</svg>
